<?xml version="1.0" encoding="UTF-8"?>
<svg width="26px" height="26px" viewBox="0 0 26 26" version="1.1" xmlns="http://www.w3.org/2000/svg" xmlns:xlink="http://www.w3.org/1999/xlink">
    <!-- Generator: Sketch 59.1 (86144) - https://sketch.com -->
    <title>Contact - LinkedIn - Open</title>
    <desc>Created with Sketch.</desc>
    <g id="Arya-Profile-UI---Assets" stroke="none" stroke-width="1" fill="none" fill-rule="evenodd">
        <g id="Artboard" transform="translate(-1924.000000, -451.000000)" fill="#000000" fill-rule="nonzero">
            <path d="M1937,451.6 C1943.84833,451.6 1949.4,457.151669 1949.4,464 C1949.4,470.848331 1943.84833,476.4 1937,476.4 C1930.15167,476.4 1924.6,470.848331 1924.6,464 C1924.6,457.151669 1930.15167,451.6 1937,451.6 Z M1937,452.4 C1930.5935,452.4 1925.4,457.593497 1925.4,464 C1925.4,470.406503 1930.5935,475.6 1937,475.6 C1943.4065,475.6 1948.6,470.406503 1948.6,464 C1948.6,457.593497 1943.4065,452.4 1937,452.4 Z M1941.25959,456.6035 C1942.98915,456.6035 1944.40262,458.017296 1944.40262,459.746977 L1944.40262,468.260471 C1944.40262,469.990097 1942.98921,471.4035 1941.25959,471.4035 L1932.74609,471.4035 C1931.0164,471.4035 1929.60262,469.990027 1929.60262,468.260471 L1929.60262,459.746977 C1929.60262,458.017347 1931.01647,456.6035 1932.74609,456.6035 L1941.25959,456.6035 Z M1941.25959,457.4035 L1932.74609,457.4035 C1931.4583,457.4035 1930.40262,458.459176 1930.40262,459.746977 L1930.40262,468.260471 C1930.40262,469.54816 1931.45819,470.6035 1932.74609,470.6035 L1941.25959,470.6035 C1942.54739,470.6035 1943.60262,469.548269 1943.60262,468.260471 L1943.60262,459.746977 C1943.60262,458.459083 1942.54728,457.4035 1941.25959,457.4035 Z M1939.66996,461.831383 C1941.39214,461.831383 1942.50409,463.037883 1942.50409,465.094752 L1942.50409,469.142632 L1939.58982,469.142632 L1939.58982,465.339327 C1939.58982,464.61262 1939.37736,464.300646 1938.91869,464.300646 C1938.5812,464.300646 1938.33389,464.501911 1938.20354,464.825826 C1938.17874,464.886196 1938.16398,465.011193 1938.16398,465.189685 L1938.16398,469.142632 L1935.24783,469.142632 L1935.26201,464.508135 C1935.26248,463.49849 1935.25979,462.795954 1935.25337,462.504247 L1935.23069,461.98059 L1938.16442,461.98059 L1938.16442,462.263777 L1938.31648,462.164732 C1938.68157,461.947859 1939.12038,461.831383 1939.66996,461.831383 Z M1934.87925,461.981052 L1934.87925,469.14266 L1931.96499,469.14266 L1931.96499,461.981052 L1934.87925,461.981052 Z M1939.66996,462.631383 C1938.89668,462.631383 1938.47191,462.925385 1938.10008,463.499076 L1937.74587,464.045575 C1938.02545,463.710561 1938.42795,463.500646 1938.91869,463.500646 C1939.89894,463.500646 1940.38982,464.221452 1940.38982,465.339327 L1940.38982,468.342632 L1941.70409,468.342632 L1941.70409,465.094752 C1941.70409,463.46579 1940.93507,462.631383 1939.66996,462.631383 Z M1937.36442,462.78059 L1936.0573,462.78059 L1936.06208,464.207655 L1936.05152,468.342632 L1937.36398,468.342632 L1937.36398,465.189685 C1937.36398,464.969439 1937.3799,464.790505 1937.42396,464.63603 L1937.46247,464.524496 L1937.52277,464.389793 L1937.36442,464.634108 L1937.36442,462.78059 Z M1934.07925,462.781052 L1932.76499,462.781052 L1932.76499,468.34266 L1934.07925,468.34266 L1934.07925,462.781052 Z M1937.74,464.052 L1937.66336,464.153081 L1937.58892,464.268006 L1937.58892,464.268006 L1937.52277,464.389793 L1937.74,464.052 Z M1933.43611,458.913782 C1934.35309,458.913782 1934.99968,459.538807 1935.01884,460.412912 C1935.01884,461.272217 1934.35159,461.911608 1933.42213,461.911608 L1933.25968,461.905714 C1932.42976,461.839337 1931.84028,461.219542 1931.84028,460.412912 C1931.84028,459.547858 1932.51235,458.913782 1933.43611,458.913782 Z M1933.43611,459.713782 C1932.94411,459.713782 1932.64028,460.000432 1932.64028,460.412912 C1932.64028,460.820641 1932.93858,461.111608 1933.40856,461.111608 L1933.54181,461.105689 C1933.96539,461.06266 1934.21885,460.789173 1934.21894,460.421723 C1934.2095,459.993408 1933.92023,459.713782 1933.43611,459.713782 Z" id="Contact---LinkedIn---Open"></path>
        </g>
    </g>
</svg>