<?xml version="1.0" encoding="UTF-8"?>
<svg width="26px" height="25px" viewBox="0 0 26 25" version="1.1" xmlns="http://www.w3.org/2000/svg" xmlns:xlink="http://www.w3.org/1999/xlink">
    <!-- Generator: Sketch 59.1 (86144) - https://sketch.com -->
    <title>Contact - Website - Open</title>
    <desc>Created with Sketch.</desc>
    <g id="Arya-Profile-UI---Assets" stroke="none" stroke-width="1" fill="none" fill-rule="evenodd">
        <g id="Artboard" transform="translate(-1924.000000, -339.000000)" fill="#000000" fill-rule="nonzero">
            <path d="M1937,339.1 C1943.84833,339.1 1949.4,344.651669 1949.4,351.5 C1949.4,358.348331 1943.84833,363.9 1937,363.9 C1930.15167,363.9 1924.6,358.348331 1924.6,351.5 C1924.6,344.651669 1930.15167,339.1 1937,339.1 Z M1937,339.9 C1930.5935,339.9 1925.4,345.093497 1925.4,351.5 C1925.4,357.906503 1930.5935,363.1 1937,363.1 C1943.4065,363.1 1948.6,357.906503 1948.6,351.5 C1948.6,345.093497 1943.4065,339.9 1937,339.9 Z M1928.25684,350.205078 L1928.71094,352.604492 L1929.37305,350.205078 L1930.62988,350.205078 L1931.29492,352.604492 L1931.74902,350.205078 L1933.00293,350.205078 L1932.05664,354.5 L1930.75586,354.5 L1930.00293,351.795898 L1929.25293,354.5 L1927.95215,354.5 L1926.99707,350.205078 L1928.25684,350.205078 Z M1934.65684,350.205078 L1935.11094,352.604492 L1935.77305,350.205078 L1937.02988,350.205078 L1937.69492,352.604492 L1938.14902,350.205078 L1939.40293,350.205078 L1938.45664,354.5 L1937.15586,354.5 L1936.40293,351.795898 L1935.65293,354.5 L1934.35215,354.5 L1933.39707,350.205078 L1934.65684,350.205078 Z M1941.05684,350.205078 L1941.51094,352.604492 L1942.17305,350.205078 L1943.42988,350.205078 L1944.09492,352.604492 L1944.54902,350.205078 L1945.80293,350.205078 L1944.85664,354.5 L1943.55586,354.5 L1942.80293,351.795898 L1942.05293,354.5 L1940.75215,354.5 L1939.79707,350.205078 L1941.05684,350.205078 Z M1947.52715,353.304687 L1947.52715,354.5 L1946.25273,354.5 L1946.25273,353.304687 L1947.52715,353.304687 Z" id="Contact---Website---Open"></path>
        </g>
    </g>
</svg>