<?xml version="1.0" encoding="UTF-8"?>
<svg width="26px" height="26px" viewBox="0 0 26 26" version="1.1" xmlns="http://www.w3.org/2000/svg" xmlns:xlink="http://www.w3.org/1999/xlink">
    <!-- Generator: Sketch 59.1 (86144) - https://sketch.com -->
    <title>Contact - Email - Open</title>
    <desc>Created with Sketch.</desc>
    <g id="Arya-Profile-UI---Assets" stroke="none" stroke-width="1" fill="none" fill-rule="evenodd">
        <g id="Artboard" transform="translate(-1924.000000, -227.000000)" fill="#000000" fill-rule="nonzero">
            <path d="M1937,227.6 C1943.84833,227.6 1949.4,233.151669 1949.4,240 C1949.4,246.848331 1943.84833,252.4 1937,252.4 C1930.15167,252.4 1924.6,246.848331 1924.6,240 C1924.6,233.151669 1930.15167,227.6 1937,227.6 Z M1937,228.4 C1930.5935,228.4 1925.4,233.593497 1925.4,240 C1925.4,246.406503 1930.5935,251.6 1937,251.6 C1943.4065,251.6 1948.6,246.406503 1948.6,240 C1948.6,233.593497 1943.4065,228.4 1937,228.4 Z M1945.4,238.109375 L1945.4,244.5 C1945.4,245.549039 1944.54904,246.4 1943.5,246.4 L1930.5,246.4 C1929.45096,246.4 1928.6,245.549039 1928.6,244.5 L1928.6,238.1125 C1928.6,237.622733 1929.16108,237.349479 1929.54851,237.649732 L1930.27134,238.200743 L1930.84937,238.631413 L1930.84937,238.631413 L1934.35456,241.192528 L1935.1726,241.811252 C1935.81623,242.277146 1936.34641,242.542962 1936.823,242.59406 L1936.97996,242.60312 L1937.09814,242.600782 C1937.59263,242.572447 1938.14314,242.307165 1938.81206,241.825459 L1939.64928,241.192007 L1942.86543,238.842037 L1943.17423,238.613234 L1943.17423,238.613234 L1944.44798,237.649371 C1944.83245,237.343762 1945.4,237.622044 1945.4,238.109375 Z M1944.6,238.542007 L1943.44675,239.40708 L1940.04143,241.898261 C1939.88442,242.017978 1939.5457,242.278257 1939.35132,242.422127 L1939.0481,242.636407 C1938.43933,243.048234 1937.89519,243.302938 1937.34897,243.379256 L1937.1439,243.399472 L1937.00225,243.403119 L1936.77641,243.393689 C1936.1834,243.341425 1935.59703,243.073912 1934.92924,242.618149 L1934.70351,242.459293 C1934.51092,242.319882 1933.95656,241.892457 1933.88365,241.839243 L1930.60173,239.44318 L1929.4,238.544823 L1929.4,244.5 C1929.4,245.107211 1929.89279,245.6 1930.5,245.6 L1943.5,245.6 C1944.10721,245.6 1944.6,245.107211 1944.6,244.5 L1944.6,238.542007 Z M1943.5,233.6 C1944.54904,233.6 1945.4,234.450961 1945.4,235.5 L1945.4,236.09375 C1945.4,236.404053 1945.27504,236.699703 1945.05794,236.912962 L1944.95936,236.999116 L1944.30008,237.514612 C1943.98075,237.761487 1943.62526,238.030711 1943.15221,238.382137 L1939.52879,241.029911 C1939.45338,241.084676 1938.95202,241.472034 1938.78367,241.595346 L1938.60789,241.721451 C1938.43616,241.841847 1938.2758,241.945454 1938.11951,242.035309 C1937.70303,242.274749 1937.33503,242.405836 1937.0069,242.399941 C1936.66497,242.405836 1936.29697,242.274749 1935.88049,242.035309 C1935.7242,241.945454 1935.56384,241.841847 1935.39211,241.721451 L1935.21633,241.595346 C1935.04798,241.472034 1934.54662,241.084676 1934.47132,241.029987 L1931.3708,238.76824 L1930.20895,237.902324 L1929.90389,237.670135 L1929.90389,237.670135 L1929.03894,236.997774 C1928.76173,236.777915 1928.6,236.446757 1928.6,236.09375 L1928.6,235.5 C1928.6,234.450961 1929.45096,233.6 1930.5,233.6 L1943.5,233.6 Z M1943.5,234.4 L1930.5,234.4 C1929.89279,234.4 1929.4,234.892789 1929.4,235.5 L1929.4,236.09375 C1929.4,236.201309 1929.44923,236.302112 1929.53372,236.369134 L1930.39194,237.036252 L1931.36799,237.771049 L1932.00997,238.24542 L1932.00997,238.24542 L1935.03403,240.452249 L1935.54156,240.839374 L1935.54156,240.839374 L1935.84814,241.064133 C1936.00278,241.172641 1936.14468,241.26441 1936.27922,241.341757 C1936.5815,241.51554 1936.82682,241.602926 1937.0069,241.600193 C1937.17318,241.602926 1937.4185,241.51554 1937.72078,241.341757 C1937.85532,241.26441 1937.99722,241.172641 1938.15186,241.064133 L1938.45844,240.839373 L1938.94704,240.466641 L1938.94704,240.466641 L1942.07533,238.183248 L1943.44642,237.161005 L1943.44642,237.161005 L1944.4673,236.368341 C1944.55044,236.303835 1944.6,236.201965 1944.6,236.09375 L1944.6,235.5 C1944.6,234.892789 1944.10721,234.4 1943.5,234.4 Z" id="Contact---Email---Open"></path>
        </g>
    </g>
</svg>