<?xml version="1.0" encoding="UTF-8"?>
<svg width="26px" height="26px" viewBox="0 0 26 26" version="1.1" xmlns="http://www.w3.org/2000/svg" xmlns:xlink="http://www.w3.org/1999/xlink">
    <!-- Generator: Sketch 59.1 (86144) - https://sketch.com -->
    <title>Contact - Facebook - Open</title>
    <desc>Created with Sketch.</desc>
    <g id="Arya-Profile-UI---Assets" stroke="none" stroke-width="1" fill="none" fill-rule="evenodd">
        <g id="Artboard" transform="translate(-1924.000000, -395.000000)" fill="#000000" fill-rule="nonzero">
            <path d="M1937,395.6 C1943.84833,395.6 1949.4,401.151669 1949.4,408 C1949.4,414.848331 1943.84833,420.4 1937,420.4 C1930.15167,420.4 1924.6,414.848331 1924.6,408 C1924.6,401.151669 1930.15167,395.6 1937,395.6 Z M1937,396.4 C1930.5935,396.4 1925.4,401.593497 1925.4,408 C1925.4,414.406503 1930.5935,419.6 1937,419.6 C1943.4065,419.6 1948.6,414.406503 1948.6,408 C1948.6,401.593497 1943.4065,396.4 1937,396.4 Z M1941.44368,400.6 C1943.08068,400.6 1944.4,401.919328 1944.4,403.55633 L1944.4,412.443712 C1944.4,414.080712 1943.08068,415.400028 1941.44368,415.400028 L1939.057,415.400028 L1939.057,409.126896 L1941.12078,409.126896 L1941.17614,407.956396 L1939.057,407.956396 L1939.057,406.117462 C1939.057,405.32997 1939.35802,404.899273 1940.13079,404.851328 L1940.28125,404.84683 L1941.1491,404.849581 L1941.1762,403.774171 L1940.85278,403.752992 C1940.6429,403.742003 1940.42347,403.735816 1940.19813,403.735816 C1938.61905,403.735816 1937.7732,404.598088 1937.7732,405.872882 L1937.7732,407.956382 L1936.32595,407.956382 L1936.32595,409.126882 L1937.7732,409.126882 L1937.7732,415.400028 L1932.55632,415.400028 C1930.91932,415.400028 1929.6,414.0807 1929.6,412.443698 L1929.6,403.556316 C1929.6,401.919319 1930.91931,400.6 1932.5563,400.6 L1941.44368,400.6 Z M1941.44368,401.4 L1932.5563,401.4 C1931.36114,401.4 1930.4,402.361146 1930.4,403.556316 L1930.4,412.443698 C1930.4,413.638873 1931.36115,414.600028 1932.55632,414.600028 L1936.9732,414.600028 L1936.9732,409.926882 L1935.52595,409.926882 L1935.52595,407.156382 L1936.9732,407.156382 L1936.9732,405.872882 C1936.9732,404.159666 1938.17374,402.935816 1940.19813,402.935816 C1940.55798,402.935816 1940.90305,402.950609 1941.22176,402.975293 L1941.42798,402.992962 L1941.63695,403.015711 L1941.63695,403.015711 L1941.9944,403.062118 L1941.92902,405.655999 L1940.19017,405.647844 C1939.91051,405.655284 1939.86398,405.710176 1939.85783,406.01749 L1939.857,407.156396 L1942.01486,407.156396 L1941.88385,409.926896 L1939.857,409.926896 L1939.857,414.600028 L1941.44368,414.600028 C1942.63886,414.600028 1943.6,413.638884 1943.6,412.443712 L1943.6,403.55633 C1943.6,402.361155 1942.63885,401.4 1941.44368,401.4 Z" id="Contact---Facebook---Open"></path>
        </g>
    </g>
</svg>